<svg width="60" height="60" viewBox="0 0 60 60" fill="none" xmlns="http://www.w3.org/2000/svg">
<path d="M27.8743 0.03582C27.6444 0.0600052 26.9303 0.144665 26.3009 0.217224C21.0117 0.821918 15.4925 3.14393 11.1715 6.59067C6.02754 10.6905 2.13021 16.8825 0.702002 23.2318C0.121035 25.844 0 27.0413 0 30.0164C0 31.9998 0.0484139 33.1729 0.193656 34.1041C1.22245 40.8404 4.10308 46.6091 8.73872 51.2531C13.3744 55.8851 19.1719 58.7634 25.9015 59.7914C27.717 60.0695 32.2679 60.0695 34.0834 59.7914C40.8251 58.7634 46.5984 55.8851 51.2462 51.2531C55.8818 46.6091 58.7624 40.8404 59.7912 34.1041C60.0696 32.29 60.0696 27.7428 59.7912 25.9287C59.2708 22.5545 58.3993 19.7004 56.9832 16.8341C52.5654 7.82424 44.1656 1.72895 34.1439 0.265602C32.9457 0.0841942 28.7458 -0.0730247 27.8743 0.03582ZM42.7253 10.5574C43.1126 10.7268 43.5483 10.9807 43.7057 11.1259C44.323 11.6943 45.1823 13.4841 45.1823 14.1735C45.1823 14.6572 44.795 15.2498 44.2503 15.6368C43.0642 16.4471 38.2228 19.5794 37.2545 20.1599C36.6615 20.5107 35.7053 21.0912 35.1364 21.4298C34.5676 21.7684 33.7324 22.2764 33.2604 22.5424C32.0984 23.2197 31.699 23.5946 31.8564 23.8848C31.9169 24.0058 33.4056 25.457 35.1606 27.1139C38.3317 30.1252 39.2516 31.0081 43.7178 35.3377C49.2007 40.6348 51.0888 42.5577 52.2265 43.9606C52.8922 44.783 53.4006 45.4844 53.3643 45.5207C53.2916 45.6053 52.275 44.6983 51.2946 43.6703C50.5926 42.9447 48.8376 41.6507 48.6802 41.7595C48.6197 41.7958 48.5713 41.8804 48.5713 41.953C48.5713 42.086 50.7136 44.795 51.0404 45.0611C51.3309 45.303 51.2825 45.4118 50.8467 45.4602C50.4231 45.4965 50.3747 45.6295 50.5684 46.331L50.6652 46.6817L50.0963 46.6212C49.6364 46.5607 49.5396 46.5849 49.5396 46.7542C49.5396 46.8631 49.588 47.0082 49.6485 47.0808C49.83 47.2743 50.992 49.5237 50.992 49.6689C50.992 49.7535 50.8952 49.7051 50.7862 49.5721C50.5078 49.2577 49.1523 48.0967 46.5137 45.9198C45.3518 44.9523 43.2094 43.114 41.7449 41.82C39.1427 39.5342 38.9006 39.3528 38.2833 39.2198C38.1139 39.1835 37.3514 38.5909 36.5767 37.9137C31.1665 33.1124 27.4507 29.7987 26.7487 29.1456C25.7804 28.2386 25.502 28.1902 24.679 28.7707C22.4883 30.3308 22.4157 30.3671 22.3067 30.1978C22.1857 29.9922 21.8952 30.1857 19.886 31.7821C17.889 33.3785 16.606 34.5516 14.2216 36.922C13.0839 38.0588 12.1035 38.9537 12.0672 38.8933C11.9219 38.6514 11.583 38.8328 10.2153 39.9333C8.92027 40.9613 8.50875 41.2274 8.50875 41.0218C8.50875 40.6469 9.81593 38.8691 11.1352 37.4541C11.5709 36.9703 11.7283 36.7285 11.6557 36.6075C11.5709 36.4745 11.341 36.6075 10.639 37.2001C10.1306 37.6113 9.7191 37.9016 9.7191 37.8532C9.7191 37.7927 10.1548 37.1759 10.6874 36.4866C11.8251 35.0111 11.934 34.6967 11.1836 35.0958C10.7721 35.3014 10.6874 35.2409 10.6874 34.7451C10.6874 34.2855 10.9779 33.8018 11.6436 33.1366C12.0672 32.7133 12.1398 32.5682 12.1156 32.1933C12.0914 31.7821 12.1882 31.6612 13.8948 29.9438C16.1945 27.6339 18.0826 25.9166 19.4382 24.9128C20.0192 24.4774 20.4912 24.0783 20.4912 24.03C20.4912 23.8848 19.886 23.4374 17.3443 21.6717C13.8101 19.2166 12.7813 18.4063 11.2926 16.9067C9.46492 15.0563 9.19865 14.6693 9.13813 13.6897C9.07761 12.7464 9.3681 11.7064 9.85224 11.1984C10.2517 10.7751 10.6269 10.7509 11.9703 11.0896C12.5634 11.2347 13.096 11.2952 13.3865 11.2468C13.8101 11.1863 14.0764 11.3314 18.3368 13.9921C20.818 15.5401 23.4081 17.2211 24.098 17.7291C25.9015 19.0473 25.9983 19.1078 26.4098 19.011C26.6156 18.9747 26.9787 18.7812 27.2328 18.5998C28.54 17.6565 31.2875 15.8303 32.8489 14.8628C34.9791 13.5446 40.5588 10.4849 40.8493 10.4849C40.9582 10.4849 41.0913 10.4244 41.1276 10.3639C41.2608 10.1463 42.0112 10.2309 42.7253 10.5574Z" fill="white"/>
</svg>
